<svg id="visual" viewBox="0 0 900 600" width="900" height="600" xmlns="http://www.w3.org/2000/svg" xmlns:xlink="http://www.w3.org/1999/xlink" version="1.1"><rect x="0" y="0" width="900" height="600" fill="#FFFFFF"></rect><defs><linearGradient id="grad1_0" x1="33.3%" y1="0%" x2="100%" y2="100%"><stop offset="20%" stop-color="#0071e3" stop-opacity="1"></stop><stop offset="80%" stop-color="#0071e3" stop-opacity="1"></stop></linearGradient></defs><defs><linearGradient id="grad1_1" x1="33.3%" y1="0%" x2="100%" y2="100%"><stop offset="20%" stop-color="#0071e3" stop-opacity="1"></stop><stop offset="80%" stop-color="#839dee" stop-opacity="1"></stop></linearGradient></defs><defs><linearGradient id="grad1_2" x1="33.3%" y1="0%" x2="100%" y2="100%"><stop offset="20%" stop-color="#c4cdf7" stop-opacity="1"></stop><stop offset="80%" stop-color="#839dee" stop-opacity="1"></stop></linearGradient></defs><defs><linearGradient id="grad1_3" x1="33.3%" y1="0%" x2="100%" y2="100%"><stop offset="20%" stop-color="#c4cdf7" stop-opacity="1"></stop><stop offset="80%" stop-color="#ffffff" stop-opacity="1"></stop></linearGradient></defs><defs><linearGradient id="grad2_0" x1="0%" y1="0%" x2="66.7%" y2="100%"><stop offset="20%" stop-color="#0071e3" stop-opacity="1"></stop><stop offset="80%" stop-color="#0071e3" stop-opacity="1"></stop></linearGradient></defs><defs><linearGradient id="grad2_1" x1="0%" y1="0%" x2="66.7%" y2="100%"><stop offset="20%" stop-color="#839dee" stop-opacity="1"></stop><stop offset="80%" stop-color="#0071e3" stop-opacity="1"></stop></linearGradient></defs><defs><linearGradient id="grad2_2" x1="0%" y1="0%" x2="66.7%" y2="100%"><stop offset="20%" stop-color="#839dee" stop-opacity="1"></stop><stop offset="80%" stop-color="#c4cdf7" stop-opacity="1"></stop></linearGradient></defs><defs><linearGradient id="grad2_3" x1="0%" y1="0%" x2="66.7%" y2="100%"><stop offset="20%" stop-color="#ffffff" stop-opacity="1"></stop><stop offset="80%" stop-color="#c4cdf7" stop-opacity="1"></stop></linearGradient></defs><g transform="translate(900, 0)"><path d="M0 486.7C-56.8 467.2 -113.7 447.7 -177.6 428.7C-241.4 409.6 -312.3 391.1 -344.2 344.2C-376.1 297.3 -368.9 222 -386.2 160C-403.4 97.9 -445.1 48.9 -486.7 0L0 0Z" fill="#e2e6fb"></path><path d="M0 365.1C-42.6 350.4 -85.3 335.8 -133.2 321.5C-181.1 307.2 -234.2 293.3 -258.1 258.1C-282 223 -276.7 166.5 -289.6 120C-302.6 73.4 -333.8 36.7 -365.1 0L0 0Z" fill="#a5b4f2"></path><path d="M0 243.4C-28.4 233.6 -56.8 223.9 -88.8 214.3C-120.7 204.8 -156.2 195.5 -172.1 172.1C-188 148.6 -184.5 111 -193.1 80C-201.7 48.9 -222.5 24.5 -243.4 0L0 0Z" fill="#5987e8"></path><path d="M0 121.7C-14.2 116.8 -28.4 111.9 -44.4 107.2C-60.4 102.4 -78.1 97.8 -86 86C-94 74.3 -92.2 55.5 -96.5 40C-100.9 24.5 -111.3 12.2 -121.7 0L0 0Z" fill="#0071e3"></path></g><g transform="translate(0, 600)"><path d="M0 -486.7C56.2 -455.4 112.3 -424 164.6 -397.3C216.8 -370.6 265.1 -348.5 316.1 -316.1C367.1 -283.6 420.8 -240.7 449.7 -186.3C478.6 -131.9 482.7 -65.9 486.7 0L0 0Z" fill="#e2e6fb"></path><path d="M0 -365.1C42.1 -341.5 84.2 -318 123.4 -298C162.6 -277.9 198.8 -261.4 237.1 -237.1C275.3 -212.7 315.6 -180.5 337.3 -139.7C358.9 -98.9 362 -49.4 365.1 0L0 0Z" fill="#a5b4f2"></path><path d="M0 -243.4C28.1 -227.7 56.2 -212 82.3 -198.6C108.4 -185.3 132.5 -174.3 158 -158C183.5 -141.8 210.4 -120.3 224.8 -93.1C239.3 -65.9 241.3 -33 243.4 0L0 0Z" fill="#5987e8"></path><path d="M0 -121.7C14 -113.8 28.1 -106 41.1 -99.3C54.2 -92.6 66.3 -87.1 79 -79C91.8 -70.9 105.2 -60.2 112.4 -46.6C119.6 -33 120.7 -16.5 121.7 0L0 0Z" fill="#0071e3"></path></g></svg>